<?xml version="1.0" encoding="UTF-8"?>
<svg xmlns="http://www.w3.org/2000/svg" version="1.1" viewBox="0 0 24 24">
  <!-- Generator: Adobe Illustrator 30.2.1, SVG Export Plug-In . SVG Version: 2.1.1 Build 1)  -->
  <defs>
    <style>
      .st0, .st1 {
        fill: none;
      }

      .st1 {
        stroke: #000;
        stroke-linecap: round;
        stroke-linejoin: round;
        stroke-width: 2px;
      }

      .st2 {
        fill: #fff;
      }

      .st3 {
        display: none;
      }
    </style>
  </defs>
  <g id="Layer_1" class="st3">
    <path class="st0" d="M0,0h24v24H0V0Z"/>
    <path class="st1" d="M4,6h16"/>
    <path class="st1" d="M4,12h16"/>
    <path class="st1" d="M4,18h12"/>
  </g>
  <g id="Layer_2">
    <path class="st2" d="M2.93,4.87c.09-.45.39-.7.52-.8.33-.25.7-.27.85-.28,3.01-.17,6.12,0,6.12,0,1.71.1,3.18.02,4.52-.04,1.19-.06,2.39.09,3.58-.06.81-.1,1.67-.27,2.26.24.07.06.5.43.47.94-.03.38-.3.64-.38.71-.5.46-1.2.39-2.16.33-.45-.03-2.1-.13-3.44-.09-1.02.03-.93.11-2.26.16-.84.03-.96,0-2.54,0-1.14,0-1.25.02-2.68.03-.89,0-1.79-.07-2.68,0-1.05.09-1.62.24-1.96-.12-.33-.35-.21-.96-.21-1Z"/>
    <path class="st2" d="M21.07,8.51c-.09-.45-.39-.7-.52-.8-.33-.25-.7-.27-.85-.28-3.01-.17-6.12,0-6.12,0-1.71.1-3.18.02-4.52-.04-1.19-.06-2.39.09-3.58-.06-.81-.1-1.67-.27-2.26.24-.07.06-.5.43-.47.94.03.38.3.64.38.71.5.46,1.2.39,2.16.33.45-.03,2.1-.13,3.44-.09,1.02.03.93.11,2.26.16.84.03.96,0,2.54,0,1.14,0,1.25.02,2.68.03.89,0,1.79-.07,2.68,0,1.05.09,1.62.24,1.96-.12.33-.35.21-.96.21-1Z"/>
    <path class="st2" d="M2.79,12.16c.09-.45.39-.7.52-.8.33-.25.7-.27.85-.28,3.01-.17,6.12,0,6.12,0,1.71.1,3.18.02,4.52-.04,1.19-.06,2.39.09,3.58-.06.81-.1,1.67-.27,2.26.24.07.06.5.43.47.94-.03.38-.3.64-.38.71-.5.46-1.2.39-2.16.33-.45-.03-2.1-.13-3.44-.09-1.02.03-.93.11-2.26.16-.84.03-.96,0-2.54,0-1.14,0-1.25.02-2.68.03-.89,0-1.79-.07-2.68,0-1.05.09-1.62.24-1.96-.12-.33-.35-.21-.96-.21-1Z"/>
    <path class="st2" d="M21.21,15.8c-.09-.45-.39-.7-.52-.8-.33-.25-.7-.27-.85-.28-3.01-.17-6.12,0-6.12,0-1.71.1-3.18.02-4.52-.04-1.19-.06-2.39.09-3.58-.06-.81-.1-1.67-.27-2.26.24-.07.06-.5.43-.47.94.03.38.3.64.38.71.5.46,1.2.39,2.16.33.45-.03,2.1-.13,3.44-.09,1.02.03.93.11,2.26.16.84.03.96,0,2.54,0,1.14,0,1.25.02,2.68.03.89,0,1.79-.07,2.68,0,1.05.09,1.62.24,1.96-.12.33-.35.21-.96.21-1Z"/>
    <path class="st2" d="M2.93,19.16c.04-.2.09-.44.26-.63.24-.28.61-.31.77-.31,2.08-.12,2.97,0,2.97,0,1.56.21,2.81.2,3.74.2.2,0,.92-.03,2.34-.08.89-.03,1.79.15,2.67,0,.28-.05.74-.15,1.14.12.07.05.4.27.48.71.07.4-.09.84-.37,1.06-.35.27-.71.06-1.61,0-.38-.03-.27.01-1.61.08-1.01.05-1.8.06-2.23.06-.75,0-.66,0-2.2,0-.79,0-.85,0-1.61,0-.64,0-.91,0-1.8,0-.81,0-1.23.11-1.98,0-.57-.08-.84-.21-.95-.45-.11-.23-.05-.52,0-.77Z"/>
  </g>
</svg>