<?xml version="1.0" encoding="UTF-8"?>
<svg xmlns="http://www.w3.org/2000/svg" version="1.1" viewBox="0 0 24 24">
  <!-- Generator: Adobe Illustrator 30.2.1, SVG Export Plug-In . SVG Version: 2.1.1 Build 1)  -->
  <defs>
    <style>
      .st0, .st1 {
        fill: none;
      }

      .st1 {
        stroke: #000;
        stroke-linecap: round;
        stroke-linejoin: round;
        stroke-width: 2px;
      }

      .st2 {
        fill: #fff;
      }

      .st3 {
        display: none;
      }
    </style>
  </defs>
  <g id="Layer_1" class="st3">
    <path class="st0" d="M0,0h24s0,24,0,24H0S0,0,0,0Z"/>
    <path class="st1" d="M5,5c0-.55.45-1,1-1h2c.55,0,1,.45,1,1v14c0,.55-.45,1-1,1h-2c-.55,0-1-.45-1-1V5"/>
    <path class="st1" d="M9,5c0-.55.45-1,1-1h2c.55,0,1,.45,1,1v14c0,.55-.45,1-1,1h-2c-.55,0-1-.45-1-1V5"/>
    <path class="st1" d="M5,8h4"/>
    <path class="st1" d="M9,16h4"/>
    <path class="st1" d="M13.8,4.56l2.18-.53c.56-.14,1.13.19,1.28.73l3.7,13.42c.14.51-.14,1.04-.63,1.22l-.13.04-2.18.53c-.56.14-1.13-.19-1.28-.73l-3.7-13.42c-.14-.51.14-1.04.63-1.22l.13-.04"/>
    <path class="st1" d="M14,9l4-1"/>
    <path class="st1" d="M16,16l3.92-.98"/>
  </g>
  <g id="Layer_2">
    <path class="st2" d="M15.39,2.51c.22.12.27.43.29.52.38,2.18,4.09,14.54,4.23,14.92.03.07.13.32.18.64.19,1.11-.3,2.34-.94,1.74-.13-.12-.24-.29-.26-.33-1.21-1.96-2.01-8.38-3.67-13.17-.27-.77-.47-1.44-.7-2.88-.07-.42-.14-1,.18-1.3.18-.16.48-.25.69-.14Z"/>
    <path class="st2" d="M13.64,2.44c.23.16.22.47.21.57-.08,2.2,1.34,15.07,1.43,15.47.02.07.08.34.06.66-.04,1.12-.9,2.23-1.51,1.52-.12-.15-.21-.33-.23-.38-.95-2.16-.37-8.62-1.19-13.64-.13-.8-.21-1.51-.14-2.96.02-.42.07-1,.52-1.23.24-.12.63-.15.84,0Z"/>
    <path class="st2" d="M10.93,2.77c.07.02.43.15.6.45.21.35.05.75.02.85-.5,1.45.34,12.16.98,14.73.03.11.2.78-.11,1.49-.18.43-.58.95-.93.91-.17-.02-.33-.17-.37-.22-.12-.15-.2-.33-.22-.38-.92-2.16-.36-8.62-1.16-13.64-.13-.8-.21-1.51-.14-2.96.02-.42.07-1.03.51-1.23.33-.15.77-.02.82,0Z"/>
    <path class="st2" d="M8.02,2.53c.2.16.19.47.19.57-.07,2.2,1.17,15.07,1.24,15.47.01.07.07.34.05.66-.04,1.12-.78,2.23-1.32,1.52-.11-.15-.18-.33-.2-.38-.83-2.16-.32-8.62-1.03-13.64-.11-.8-.18-1.51-.12-2.96.02-.42.06-1,.45-1.23.21-.12.54-.15.74,0Z"/>
    <path class="st2" d="M5.26,2.86c.4.09.58.39.61.45.2.36.05.76.02.85-.51,1.45.35,12.16.99,14.73.03.11.2.78-.11,1.49-.19.43-.58.95-.94.91-.17-.02-.34-.17-.38-.22-.12-.15-.2-.33-.23-.38-.94-2.16-.36-8.62-1.17-13.64-.18-1.14-.31-1.72-.14-2.96.05-.34.15-.9.63-1.14.06-.03.36-.17.72-.09Z"/>
  </g>
</svg>