<?xml version="1.0" encoding="UTF-8"?>
<svg id="Layer_2" data-name="Layer 2" xmlns="http://www.w3.org/2000/svg" viewBox="0 0 1020.99 806.12">
  <defs>
    <style>
      .cls-1 {
        fill: #fff;
      }
    </style>
  </defs>
  <g id="Layer_1-2" data-name="Layer 1">
    <g>
      <path class="cls-1" d="M1012.01,559.36c-13.92,32.19-35.5,67.53-62.22,95.22-27.97,29.03-63.93,51.64-102.65,71.26-88.45,44.99-191.57,71.67-296.75,78.13-103.27,7.04-207.18-2.76-302.05-34.25-106.02-35.06-190.23-87.98-239.7-171.3-3.25-5.48-12.28-21-7.03-27.94,9.41-12.44,57.98,10.98,69.08,16.54,40.65,20.36,66.54,45.28,71.81,50.26,49.07,46.31,111.95,62.43,183.39,80.75,97.87,25.1,176.56,17.61,230.97,12.42,70.8-6.75,122.33-21.58,180.73-38.4,61.89-17.82,93.44-27.18,122.69-48.95,21.92-16.32,45.66-41.62,93.12-92.23,38.12-40.64,54.61-60.8,62.97-56.46,5.68,2.95,8.02,17.42-4.37,64.95Z"/>
      <path class="cls-1" d="M552.46,310.52c1.15,10.68-7.77,21.05-17.01,25.21-11.96,5.39-23.62-.03-32.17-4-7.99-3.71-17.34-8.06-18.66-15.76-1.91-11.22,13.92-25.38,30.03-27.39,15.72-1.97,36.2,7.06,37.8,21.95Z"/>
      <path class="cls-1" d="M881.58,110.29c-34.24-34.91-70.2-48.33-122.47-67.17-61.5-22.17-160.71-56.64-282.32-37.57-45.56,7.15-82.68,19.99-100.85,26.85-11.32,4.27-51.73,19.98-102.31,52.2-26.01,16.56-80.72,51.96-133.17,112.27C91.52,253.15.79,357.48,30.61,453.18c10.89,34.94,33.86,55.96,74.54,93.18,60.08,54.96,120.34,79.24,155.86,93.18,108.01,42.37,202.66,43.49,242.28,42.35,135.53-3.91,231.7-51.75,282.9-77.93,63.85-32.65,115.1-59.64,156.93-119.4,16.87-24.1,64.27-91.81,50.97-170.41-4.51-26.64-20.35-55.06-52.05-111.9-26.11-46.83-39.16-70.24-60.46-91.96ZM669.29,436.24c-48.78,36.36-101.82,38.94-146.8,41.35-41.06,2.2-76.64,4.1-117.48-15.15-13.06-6.16-56.02-27.15-80.7-75.13-7.21-14.03-16.36-31.81-15.85-55.38,1.15-52.31,48.94-87.3,73.61-105.37,46.76-34.24,93.03-39.91,104.25-41.04,32.39-3.26,58.12,2.21,79.62,6.78,21.85,4.65,43.86,9.32,69.46,23.72,39.4,22.16,60.21,52.09,66.07,60.99,13.65,20.74,28.72,43.64,27.11,72.85-2.43,44.01-41.15,72.87-59.29,86.4Z"/>
    </g>
  </g>
</svg>