<?xml version="1.0" encoding="UTF-8"?>
<svg id="Layer_1" xmlns="http://www.w3.org/2000/svg" version="1.1" viewBox="0 0 24 24">
  <!-- Generator: Adobe Illustrator 30.2.1, SVG Export Plug-In . SVG Version: 2.1.1 Build 1)  -->
  <defs>
    <style>
      .st0 {
        fill: none;
      }

      .st1 {
        fill: #606060;
      }

      .st2 {
        display: none;
      }
    </style>
  </defs>
  <g id="Layer_11" data-name="Layer_1" class="st2">
    <path class="st0" d="M0,0h24v24H0V0Z"/>
    <path d="M7.51,3.84c.15-.91,1.35-1.15,1.83-.37,2.29,3.67,4.27,4.05,5.76,1.08.47-.94,1.89-.61,1.89.45,0,2.45,1.55,4,4,4,.89,0,1.34,1.08.71,1.71-1.61,1.61-1.61,2.97,0,4.58.63.63.18,1.71-.71,1.71-2.45,0-3,.56-3,3,0,.96-1.22,1.37-1.8.6-2.32-3.1-5.49-2.86-7.37-.05-.5.75-1.67.5-1.82-.39-.36-2.19-1.04-2.66-4.18-3.18-.54-.09-.91-.61-.82-1.15.03-.21.13-.39.28-.54,1.62-1.62,1.62-3.03-.05-4.98h0v-.03s-.05-.06-.05-.06h0v-.02l-.04-.07-.02-.03h0l-.03-.07-.02-.04c-.03-.08-.04-.15-.05-.23v-.12c0-.11.02-.22.06-.33v-.02l.03-.05v-.03l.02-.02v-.02l.03-.03.02-.03v-.02l.03-.02.03-.03v-.02l.03-.02.02-.02.02-.02.02-.02.04-.03.02-.02h0l.02-.02.06-.04.02-.02h0s.06-.04.06-.04l.03-.02h0l.06-.03.04-.02s.08-.02.12-.03h0l.27-.06c2.39-.61,3.93-2.19,4.41-4.52l.05-.26h-.02Z"/>
  </g>
  <g id="Layer_2">
    <path class="st1" d="M6.61,6.67c.59-1.01.37-1.95.88-3.71.06-.21.17-.58.42-.64.27-.07.56.26.74.46.7.76,1.53,1.39,2.22,2.15,1.06,1.16,1.17,1.26,1.41,1.28.51.04.6-.4,1.98-1.32.06-.04,0,0,2.05-1.02.35-.18.74-.37.95-.21.16.12.15.37.14.67-.03.88-.05,1.31-.11,1.69-.18,1.18-.27,1.77-.04,2.15.12.2.82.47,2.22.99.59.22,1.16.52,1.76.71.46.14.67.18.74.35.16.41-.62,1.15-1.31,1.59-1.18.74-1.97.49-2.15.99-.21.6.7,1.56,1.16,2.05.28.3.59.56.95,1.09.31.46.54.79.42.99-.24.42-1.85-.05-2.29-.18-1.43-.41-1.88-.87-2.19-.64-.32.25.03.85-.07,2.65,0,.07-.03.42-.1.87-.15.95-.24,1.58-.58,1.7-.2.07-.42-.06-1.27-.81-1.03-.91-1.55-1.37-2.04-1.94-.96-1.12-.97-1.46-1.36-1.51-.57-.06-.76.62-2.18,1.82-.85.72-1.4.99-2.29,1.45-.81.42-1.28.56-1.59.35-.26-.17-.31-.52-.35-.81-.07-.51.01-1.03.35-1.87.53-1.31.92-1.52.78-1.87-.16-.39-.77-.49-1.94-.67-1.56-.24-2.19-.07-2.36-.42-.25-.5.86-1.5.92-1.55,1.03-.92,2.21-1,2.22-1.52,0-.15-.09-.26-.17-.35-.77-.89-1.16-1.34-1.76-1.91-.17-.16-1.72-1.62-1.41-2.19.15-.29.73-.25,1.48-.21,1.6.09,2.17.58,2.89.25.42-.19.63-.55.85-.92l.03.02Z"/>
  </g>
</svg>