<?xml version="1.0" encoding="UTF-8"?>
<svg xmlns="http://www.w3.org/2000/svg" version="1.1" viewBox="0 0 24 24">
  <!-- Generator: Adobe Illustrator 30.2.1, SVG Export Plug-In . SVG Version: 2.1.1 Build 1)  -->
  <defs>
    <style>
      .st0, .st1 {
        fill: none;
      }

      .st1 {
        stroke: #000;
        stroke-linecap: round;
        stroke-linejoin: round;
        stroke-width: 2px;
      }

      .st2 {
        fill: #fff;
      }

      .st3 {
        display: none;
      }
    </style>
  </defs>
  <g id="Layer_1" class="st3">
    <path class="st0" d="M0,0h24v24H0V0Z"/>
    <path class="st1" d="M12,17l-2,2,2,2"/>
    <path class="st1" d="M10,19h9c1.1-.06,1.95-1,1.89-2.1-.01-.22-.06-.44-.14-.65l-.55-1"/>
    <path class="st1" d="M8.54,11l-.73-2.73-2.73.73"/>
    <path class="st1" d="M7.8,8.27l-4.5,7.79c-.5.98-.11,2.19.87,2.69.2.1.41.17.63.2l1.14.02"/>
    <path class="st1" d="M15.46,11l2.73.73.73-2.73"/>
    <path class="st1" d="M18.2,11.73l-4.5-7.79c-.6-.93-1.84-1.19-2.77-.59-.19.12-.35.27-.49.45l-.59.98"/>
  </g>
  <g id="Layer_2">
    <path class="st2" d="M18.52,12.84c.22-.09.35-.38.6-.97.15-.36.25-.67.3-.87.14-.54.18-.98.19-1.09.04-.49.15-1.77-.3-1.94-.27-.11-.65.23-.72.3-.46.41-.44.95-.65.97-.19.01-.38-.45-.4-.52-.45-1.27-1.3-2.65-2.35-4.38-.7-1.14-1.06-1.72-1.84-2.05-1.08-.46-2.14-.08-2.35,0-1.08.41-1.69,1.27-1.95,1.91-.05.12-.2.5-.22,1-.01.32-.04.96.25,1.09.31.14.84-.38,1.11-.65.13-.13.32-.31.49-.6.26-.42.24-.63.49-.81.25-.18.53-.17.62-.17.38.01.64.22.78.33.22.17.34.38.56.8.57,1.04.59,1.08.66,1.2.3.51.36.43.87,1.14.63.86.46.87,1.11,1.78.31.45.53.69.45.82-.08.13-.35.03-1.02.04-.53.01-.8.02-.91.19-.14.23.1.63.24.8.06.07.2.23.74.49.3.14.48.2.86.34.03,0,.63.23,1.18.45.89.36,1,.47,1.2.39Z"/>
    <path class="st2" d="M8.94,18.63c-.05.23.13.5.48,1.03.22.33.42.57.56.73.38.42.72.69.8.76.38.3,1.4,1.09,1.79.81.24-.17.16-.67.15-.77-.09-.6-.56-.89-.46-1.07.09-.17.58-.07.65-.05,1.3.32,2.93.36,4.95.42,1.34.04,2.02.05,2.72-.42.98-.65,1.24-1.75,1.29-1.97.24-1.13-.14-2.11-.53-2.68-.07-.11-.31-.44-.72-.73-.26-.19-.78-.56-1.05-.39-.29.18-.14.91-.06,1.29.04.18.09.44.23.74.21.45.4.54.41.86.01.31-.15.54-.2.61-.22.31-.53.41-.7.47-.26.09-.51.07-.98.04-1.19-.09-1.23-.1-1.36-.11-.59-.02-.56.07-1.43.11-1.07.05-.98-.09-2.1-.05-.55.02-.87.07-.93-.08-.06-.14.17-.31.52-.88.28-.45.42-.68.33-.86-.12-.25-.58-.26-.8-.24-.09,0-.3.04-.82.35-.28.17-.43.29-.76.54-.02.02-.54.4-1.03.74-.79.55-.94.58-.98.79Z"/>
    <path class="st2" d="M8.77,7.48c-.18-.15-.5-.13-1.14-.07-.39.03-.7.1-.91.15-.55.13-.95.3-1.05.34-.45.19-1.63.7-1.57,1.18.04.29.51.46.6.5.57.21,1.05-.06,1.16.12.1.17-.22.54-.27.6-.9.99-1.73,2.4-2.75,4.14-.68,1.15-1.02,1.75-.94,2.58.1,1.17.94,1.93,1.11,2.08.87.76,1.92.89,2.6.82.13-.01.53-.06.99-.28.29-.14.87-.42.85-.73-.02-.34-.74-.56-1.1-.67-.18-.06-.42-.13-.76-.15-.5-.03-.67.09-.95-.05-.28-.14-.4-.39-.44-.47-.17-.34-.11-.67-.08-.84.05-.27.18-.48.44-.87.65-.99.68-1.03.75-1.15.31-.51.21-.52.59-1.3.47-.96.55-.82,1.05-1.82.25-.49.36-.79.52-.78.15.01.19.3.52.88.26.46.4.7.6.71.27.02.51-.38.59-.58.04-.08.11-.29.09-.89-.01-.33-.05-.52-.11-.92,0-.03-.09-.67-.16-1.26-.1-.95-.06-1.1-.22-1.24Z"/>
  </g>
</svg>