<?xml version="1.0" encoding="UTF-8"?>
<svg id="Layer_1" xmlns="http://www.w3.org/2000/svg" version="1.1" viewBox="0 0 24 24">
  <!-- Generator: Adobe Illustrator 30.2.1, SVG Export Plug-In . SVG Version: 2.1.1 Build 1)  -->
  <defs>
    <style>
      .st0 {
        fill: none;
      }

      .st1 {
        fill: #fff;
      }

      .st2 {
        display: none;
      }
    </style>
  </defs>
  <g id="Layer_11" data-name="Layer_1" class="st2">
    <path class="st0" d="M0,0h24v24H0V0Z"/>
    <path d="M13,1c1.05,0,1.92.81,1.99,1.85v.65c0,1.32.38,2.6,1.09,3.7l.17.25.05.07c1.03,1.44,1.61,3.15,1.68,4.92v6.55c0,1.59-1.24,2.9-2.82,2.99h-6.18c-1.59,0-2.9-1.24-2.99-2.82v-6.38c0-1.77.52-3.5,1.49-4.98l.2-.29.05-.07c.82-1.16,1.26-2.54,1.26-3.96v-.5c0-1.05.81-1.92,1.85-2h2.15v.02ZM13.36,6h-2.72c-.24.83-.61,1.61-1.08,2.33l-.19.28-.05.07c-.79,1.11-1.25,2.43-1.31,3.8v.12c.57-.41,1.27-.62,1.97-.61,1.12-.02,2.18.51,2.83,1.42.27.38.71.59,1.21.58.46,0,.9-.21,1.17-.58.22-.31.5-.58.81-.8v.18c0-1.37-.39-2.71-1.13-3.85l-.23-.33c-.57-.8-1-1.68-1.27-2.62h-.01Z"/>
  </g>
  <g id="Layer_2">
    <path class="st1" d="M9.9,2.64c-.52-.6-2.62-.57-2.72.27-.05.6.07,1.38.18,1.89.06.1.42-.04.62-.06.51-.12,1.27-.02,1.74,0,.09-.13,0-.37.05-.56,0-.35.2-1.06.16-1.49l-.03-.05Z"/>
    <path class="st1" d="M11.5,18.31c-.01-.64.01-1.28,0-1.92-.09-2.65-.51-5.3-.4-7.94,0,0,.04-1-.28-1.55-.01-.03-.04-.06-.04-.06-.12-.16-.28-.4-.51-.6-.47-.42-.9-.44-1.5-.48-.55-.03-.93-.05-1.39.23-.46.27-.84.75-1.07.97-.15.15-.36.4-.55.77-.44.85-.43,1.75-.46,3.09-.06,2.06-.13,1.45-.17,3.29-.04,1.79.06,1.19.1,4.29.02,1.3,0,1.81.3,2.2.19.25.36.34,1.61.37,1.49.04,2.05.16,2.72.11.12,0,.39,0,.71-.11.34-.11.56-.17.72-.38.29-.36.22-.93.2-2.28Z"/>
  </g>
  <path class="st1" d="M14.74,7.1c.08-.39-.09-1.13,0-1.48.08-.2.45-.3.71-.37,1.61-.27,1.67.08,1.65,1.62,0,.17-.18.15-.42.08-.59-.12-1.36-.07-1.89.18l-.06-.04Z"/>
  <path class="st1" d="M13.98,20.93c-.38-.34-.45-.82-.32-3.12.17-2.91.33-2.78.28-3.99-.03-.68-.11-1.51-.15-3.16-.02-.9-.01-1.45.37-1.96.54-.72,1.43-.83,1.55-.84.81-.09,1.63.26,2.07.84.28.37.33,1.01.42,2.27.05.64.06,1.1.06,1.33.03,1.15.14,1.98.33,3.41.17,1.27.34,2.22.3,3.66-.02.64-.07,1.04-.36,1.36-.46.52-1.24.53-2.25.54-1.25.01-1.87.02-2.29-.36Z"/>
</svg>